<svg width="426" height="395" viewBox="0 0 426 395" fill="none" xmlns="http://www.w3.org/2000/svg">
<path d="M211.699 343.38C253.027 343.38 292.662 326.947 321.885 297.695C351.108 268.443 367.526 228.769 367.526 187.4C367.526 146.032 351.108 106.357 321.885 77.1054C292.662 47.8535 253.027 31.4199 211.699 31.4199C170.372 31.4199 130.737 47.8535 101.514 77.1054C72.2904 106.357 55.873 146.032 55.873 187.4C55.873 228.769 72.2904 268.443 101.514 297.695C130.737 326.947 170.372 343.38 211.699 343.38Z" fill="#FFD21E"/>
<path d="M367.526 187.401C367.526 146.033 351.109 106.359 321.886 77.1069C292.662 47.8549 253.027 31.4213 211.7 31.4213C170.372 31.4213 130.737 47.8549 101.514 77.1069C72.2907 106.359 55.8734 146.033 55.8734 187.401C55.8734 228.77 72.2907 268.444 101.514 297.696C130.737 326.948 170.372 343.382 211.7 343.382C253.027 343.382 292.662 326.948 321.886 297.696C351.109 268.444 367.526 228.77 367.526 187.401ZM37.9365 187.401C37.9365 164.56 42.431 141.942 51.1635 120.84C59.8959 99.7368 72.6952 80.5624 88.8306 64.4111C104.966 48.2598 124.121 35.4478 145.203 26.7068C166.285 17.9657 188.881 13.4668 211.7 13.4668C234.519 13.4668 257.114 17.9657 278.196 26.7068C299.278 35.4478 318.433 48.2598 334.569 64.4111C350.704 80.5624 363.503 99.7368 372.236 120.84C380.968 141.942 385.463 164.56 385.463 187.401C385.463 233.532 367.156 277.773 334.569 310.392C301.982 343.011 257.785 361.336 211.7 361.336C165.615 361.336 121.417 343.011 88.8306 310.392C56.2437 277.773 37.9365 233.532 37.9365 187.401Z" fill="#FF9D0B"/>
<path d="M262.326 144.983C268.066 146.958 270.308 158.718 276.093 155.666C280.01 153.585 283.222 150.387 285.323 146.478C287.425 142.568 288.321 138.123 287.898 133.704C287.475 129.285 285.753 125.091 282.948 121.652C280.144 118.213 276.384 115.684 272.144 114.384C267.903 113.084 263.373 113.072 259.126 114.35C254.879 115.628 251.105 118.137 248.283 121.562C245.461 124.986 243.717 129.171 243.271 133.588C242.826 138.005 243.699 142.455 245.779 146.375C248.515 151.537 257.214 143.143 262.371 144.938L262.326 144.983ZM156.723 144.983C150.983 146.958 148.696 158.718 142.957 155.666C139.04 153.585 135.827 150.387 133.726 146.478C131.625 142.568 130.729 138.123 131.151 133.704C131.574 129.285 133.297 125.091 136.101 121.652C138.905 118.213 142.665 115.684 146.906 114.384C151.146 113.084 155.676 113.072 159.924 114.35C164.171 115.628 167.944 118.137 170.766 121.562C173.588 124.986 175.332 129.171 175.778 133.588C176.224 138.005 175.351 142.455 173.27 146.375C170.534 151.537 161.79 143.143 156.678 144.938L156.723 144.983Z" fill="#3A3B45"/>
<path d="M210.578 252.666C254.658 252.666 268.873 213.345 268.873 193.146C268.873 182.643 261.833 185.965 250.533 191.53C240.085 196.692 226.049 203.829 210.623 203.829C178.382 203.829 152.329 172.947 152.329 193.146C152.329 213.345 166.499 252.666 210.623 252.666H210.578Z" fill="#FF323D"/>
<path fill-rule="evenodd" clip-rule="evenodd" d="M176.812 242.385C179.178 237.572 182.51 233.299 186.599 229.831C190.688 226.364 195.447 223.777 200.579 222.231C202.372 221.693 204.211 224.79 206.139 227.977C207.933 231.029 209.816 234.126 211.699 234.126C213.717 234.126 215.735 231.074 217.663 228.067C219.681 224.925 221.654 221.872 223.583 222.456C233.216 225.517 241.266 232.237 246.004 241.174C262.73 227.977 268.873 206.431 268.873 193.145C268.873 182.642 261.833 185.963 250.533 191.529L249.905 191.843C239.546 197.005 225.735 203.828 210.578 203.828C195.422 203.828 181.655 197.005 171.252 191.843C159.593 186.053 152.284 182.417 152.284 193.145C152.284 206.835 158.831 229.324 176.812 242.385Z" fill="#3A3B45"/>
<path d="M317.079 166.08C320.944 166.08 324.651 164.543 327.384 161.808C330.117 159.072 331.652 155.361 331.652 151.492C331.652 147.623 330.117 143.913 327.384 141.177C324.651 138.441 320.944 136.904 317.079 136.904C313.213 136.904 309.507 138.441 306.773 141.177C304.04 143.913 302.505 147.623 302.505 151.492C302.505 155.361 304.04 159.072 306.773 161.808C309.507 164.543 313.213 166.08 317.079 166.08ZM108.563 166.08C112.428 166.08 116.135 164.543 118.868 161.808C121.601 159.072 123.137 155.361 123.137 151.492C123.137 147.623 121.601 143.913 118.868 141.177C116.135 138.441 112.428 136.904 108.563 136.904C104.698 136.904 100.991 138.441 98.2577 141.177C95.5246 143.913 93.9892 147.623 93.9892 151.492C93.9892 155.361 95.5246 159.072 98.2577 161.808C100.991 164.543 104.698 166.08 108.563 166.08ZM78.5635 215.455C71.2991 215.455 64.8418 218.418 60.3128 223.849C56.4507 228.624 54.3452 234.583 54.3488 240.726C51.5252 239.877 48.5975 239.423 45.6494 239.38C38.6989 239.38 32.421 242.028 27.9816 246.831C24.021 250.948 21.5239 256.255 20.8755 261.934C20.2272 267.612 21.4637 273.346 24.3942 278.251C20.4256 281.495 17.6102 285.934 16.3675 290.909C15.2913 294.949 14.2151 303.478 19.9549 312.186C17.8032 315.497 16.5228 319.299 16.2327 323.239C15.9426 327.178 16.6523 331.127 18.2957 334.719C22.8696 345.132 34.3043 353.301 56.5012 362.099C70.2677 367.575 82.9132 371.076 83.0029 371.121C98.9773 375.551 115.443 377.964 132.015 378.303C158.293 378.303 177.082 370.224 187.889 354.334C205.287 328.794 202.821 305.408 180.265 282.875C167.844 270.396 159.548 252.038 157.844 247.998C154.347 236.058 145.109 222.772 129.818 222.772C125.75 222.836 121.756 223.872 118.168 225.792C114.581 227.713 111.503 230.463 109.191 233.814C104.706 228.158 100.312 223.715 96.3658 221.156C91.1 217.588 84.9207 215.609 78.5635 215.455ZM78.5635 233.41C80.8504 233.41 83.6755 234.397 86.7248 236.328C96.321 242.432 114.751 274.167 121.522 286.511C123.764 290.64 127.666 292.391 131.118 292.391C138.069 292.391 143.45 285.523 131.791 276.77C114.213 263.619 120.356 242.118 128.742 240.816C129.101 240.726 129.504 240.726 129.818 240.726C137.441 240.726 140.804 253.878 140.804 253.878C140.804 253.878 150.67 278.655 167.62 295.622C184.525 312.545 185.422 326.145 173.091 344.234C164.66 356.578 148.562 360.304 132.015 360.304C114.93 360.304 97.3523 356.264 87.5319 353.75C87.0387 353.616 27.2193 336.693 34.7976 322.33C36.0532 319.906 38.1608 318.919 40.8064 318.919C51.4789 318.919 70.8507 334.808 79.2361 334.808C81.0746 334.808 82.3751 334.045 82.958 332.115C86.5005 319.322 28.8784 313.936 33.7214 295.443C34.6182 292.166 36.9052 290.865 40.1787 290.865C54.2591 290.865 85.9176 315.687 92.5542 315.687C93.0475 315.687 93.4511 315.552 93.6304 315.238C96.9488 309.851 95.1102 306.081 71.6578 291.897C48.2951 277.713 31.838 269.184 41.1652 258.995C42.2414 257.828 43.766 257.29 45.6494 257.29C59.8643 257.29 93.4511 287.902 93.4511 287.902C93.4511 287.902 102.509 297.328 108.025 297.328C109.28 297.328 110.357 296.879 111.074 295.622C114.93 289.069 74.9313 258.726 72.6892 246.203C71.1645 237.674 73.7654 233.41 78.5635 233.41Z" fill="#FF9D0B"/>
<path d="M173.091 344.234C185.422 326.1 184.525 312.5 167.62 295.578C150.67 278.655 140.804 253.833 140.804 253.833C140.804 253.833 137.127 239.47 128.742 240.816C120.356 242.163 114.213 263.618 131.791 276.77C149.324 289.922 128.293 298.854 121.522 286.511C114.796 274.167 96.321 242.432 86.7248 236.328C77.1734 230.268 70.4471 233.634 72.6892 246.203C74.9313 258.726 114.975 289.069 111.074 295.578C107.173 302.176 93.4511 287.902 93.4511 287.902C93.4511 287.902 50.5372 248.806 41.1652 258.995C31.838 269.184 48.2951 277.713 71.6578 291.897C95.1102 306.081 96.9488 309.851 93.6304 315.238C90.2673 320.624 38.5643 276.95 33.7214 295.488C28.8784 313.936 86.5005 319.278 82.958 332.07C79.3707 344.863 42.3311 307.921 34.7976 322.285C27.1744 336.693 87.0387 353.616 87.5319 353.75C106.814 358.778 155.916 369.416 173.091 344.234Z" fill="#FFD21E"/>
<path d="M347.078 215.455C354.342 215.455 360.844 218.418 365.329 223.849C369.191 228.624 371.296 234.582 371.293 240.726C374.13 239.872 377.074 239.419 380.037 239.38C386.987 239.38 393.265 242.028 397.705 246.831C401.665 250.948 404.162 256.255 404.811 261.933C405.459 267.612 404.222 273.346 401.292 278.251C405.244 281.501 408.043 285.94 409.274 290.909C410.35 294.949 411.426 303.477 405.686 312.185C407.838 315.497 409.118 319.299 409.409 323.238C409.699 327.178 408.989 331.127 407.346 334.718C402.772 345.132 391.337 353.301 369.185 362.099C355.374 367.575 342.728 371.076 342.638 371.121C326.664 375.551 310.199 377.964 293.626 378.303C267.349 378.303 248.56 370.223 237.753 354.333C220.354 328.793 222.82 305.407 245.376 282.874C257.842 270.396 266.138 252.037 267.842 247.998C271.339 236.058 280.532 222.772 295.823 222.772C299.891 222.836 303.885 223.871 307.473 225.792C311.061 227.713 314.138 230.463 316.451 233.814C320.935 228.158 325.329 223.714 329.32 221.156C334.573 217.595 340.736 215.617 347.078 215.455ZM347.078 233.41C344.791 233.41 342.011 234.397 338.917 236.327C329.365 242.432 310.89 274.166 304.119 286.51C303.205 288.271 301.829 289.75 300.138 290.786C298.447 291.822 296.505 292.377 294.523 292.39C287.617 292.39 282.191 285.523 293.895 276.77C311.428 263.618 305.285 242.118 296.899 240.816C296.544 240.758 296.184 240.728 295.823 240.726C288.2 240.726 284.837 253.878 284.837 253.878C284.837 253.878 274.972 278.655 258.066 295.622C241.116 312.544 240.219 326.145 252.595 344.234C260.981 356.578 277.124 360.303 293.626 360.303C310.756 360.303 328.289 356.264 338.154 353.75C338.603 353.615 398.467 336.693 390.889 322.329C389.588 319.906 387.525 318.918 384.88 318.918C374.207 318.918 354.791 334.808 346.45 334.808C344.567 334.808 343.266 334.045 342.728 332.115C339.141 319.322 396.763 313.936 391.92 295.443C391.068 292.166 388.781 290.864 385.463 290.864C371.382 290.864 339.724 315.686 333.087 315.686C332.639 315.686 332.235 315.552 332.056 315.237C328.737 309.851 330.531 306.081 353.939 291.897C377.391 277.712 393.848 269.184 384.431 258.995C383.4 257.828 381.875 257.289 380.037 257.289C365.777 257.289 332.19 287.902 332.19 287.902C332.19 287.902 323.132 297.328 317.661 297.328C317.045 297.355 316.433 297.21 315.894 296.909C315.356 296.608 314.912 296.162 314.612 295.622C310.711 289.069 350.71 258.726 352.952 246.202C354.477 237.674 351.876 233.41 347.078 233.41Z" fill="#FF9D0B"/>
<path d="M252.595 344.234C240.264 326.1 241.116 312.5 258.066 295.578C274.972 278.655 284.837 253.833 284.837 253.833C284.837 253.833 288.514 239.47 296.944 240.816C305.285 242.163 311.428 263.618 293.895 276.77C276.317 289.922 297.393 298.854 304.119 286.511C310.89 274.167 329.365 242.432 338.917 236.328C348.468 230.268 355.239 233.634 352.952 246.203C350.71 258.726 310.711 289.069 314.612 295.578C318.469 302.176 332.19 287.902 332.19 287.902C332.19 287.902 375.149 248.806 384.476 258.995C393.803 269.184 377.391 277.713 353.983 291.897C330.531 306.081 328.737 309.851 332.011 315.238C335.374 320.624 387.077 276.95 391.92 295.488C396.763 313.936 339.186 319.278 342.728 332.07C346.315 344.863 383.31 307.921 390.889 322.285C398.467 336.693 338.647 353.616 338.154 353.75C318.827 358.778 269.725 369.416 252.595 344.234Z" fill="#FFD21E"/>
</svg>
