<?xml version="1.0" encoding="UTF-8"?>
<svg id="Layer_2" data-name="Layer 2" xmlns="http://www.w3.org/2000/svg" viewBox="0 0 685.92 52.83">
  <defs>
    <style>
      .cls-1 {
        fill: #231f20;
        stroke-width: 0px;
      }
    </style>
  </defs>
  <g id="Layer_1-2" data-name="Layer 1">
    <g>
      <path class="cls-1" d="M0,52.09V.74h16.82c6.37,0,11.34,1.18,14.9,3.54,3.56,2.36,5.34,5.88,5.34,10.56,0,2.45-.56,4.62-1.69,6.51-1.13,1.89-2.89,3.32-5.29,4.29,3.06.66,5.32,2.02,6.79,4.09,1.47,2.07,2.2,4.46,2.2,7.16,0,5.01-1.68,8.79-5.04,11.36-3.36,2.56-8.18,3.84-14.46,3.84H0ZM11.92,22.15h4.69c2.87,0,5.01-.5,6.42-1.5s2.12-2.49,2.12-4.46c0-2.19-.68-3.78-2.05-4.78-1.36-1-3.46-1.5-6.28-1.5h-4.9v12.24ZM11.92,30.05v12.87h7.65c2.54,0,4.44-.5,5.71-1.5,1.27-1,1.9-2.53,1.9-4.6,0-2.19-.56-3.84-1.68-4.97-1.12-1.13-2.96-1.73-5.52-1.8h-8.08Z"/>
      <path class="cls-1" d="M76.07,30.12h-18.09v12.8h21.69v9.17h-33.61V.74h33.64v9.17h-21.72v11.04h18.09v9.17Z"/>
      <path class="cls-1" d="M129.18,52.09h-11.88v-20.67h-19.01v20.67h-11.92V.74h11.92v21.51h19.01V.74h11.88v51.35Z"/>
      <path class="cls-1" d="M149.99,52.09h-11.88V.74h11.88v51.35Z"/>
      <path class="cls-1" d="M201.72,52.09h-11.88l-18.8-32.3-.21.07v32.23h-11.92V.74h11.92l18.8,32.27.21-.07V.74h11.88v51.35Z"/>
      <path class="cls-1" d="M209.9,52.09V.74h18.8c6.04,0,11.1,1.97,15.16,5.91,4.07,3.94,6.1,8.99,6.1,15.15v9.24c0,6.18-2.03,11.24-6.1,15.16-4.07,3.93-9.12,5.89-15.16,5.89h-18.8ZM221.82,9.91v33.01h6.88c2.7,0,4.93-1.11,6.68-3.32,1.75-2.21,2.63-5.07,2.63-8.57v-9.31c0-3.46-.88-6.29-2.63-8.5-1.75-2.21-3.98-3.31-6.68-3.31h-6.88Z"/>
      <path class="cls-1" d="M310.8,9.91h-13.58v42.18h-11.92V9.91h-13.33V.74h38.83v9.17Z"/>
      <path class="cls-1" d="M358.44,52.09h-11.88v-20.67h-19.01v20.67h-11.92V.74h11.92v21.51h19.01V.74h11.88v51.35Z"/>
      <path class="cls-1" d="M396.64,30.12h-18.09v12.8h21.69v9.17h-33.61V.74h33.64v9.17h-21.72v11.04h18.09v9.17Z"/>
      <path class="cls-1" d="M451.4,38.48c0-1.83-.6-3.24-1.8-4.21-1.2-.97-3.37-2.02-6.52-3.12-6.37-2.07-11.1-4.27-14.19-6.61-3.09-2.34-4.64-5.71-4.64-10.1s1.8-7.78,5.4-10.44c3.6-2.66,8.17-3.99,13.72-3.99,5.85,0,10.57,1.37,14.14,4.11,3.57,2.74,5.3,6.6,5.18,11.58l-.07.21h-11.57c0-2.42-.66-4.18-1.97-5.27-1.32-1.09-3.3-1.64-5.96-1.64-2.16,0-3.87.53-5.11,1.59-1.25,1.06-1.87,2.36-1.87,3.91s.64,2.71,1.92,3.62c1.28.91,3.67,2.04,7.18,3.4,5.95,1.76,10.45,3.91,13.51,6.45,3.06,2.54,4.58,6.02,4.58,10.44s-1.76,8.05-5.29,10.6c-3.53,2.55-8.21,3.83-14.04,3.83s-10.73-1.37-14.76-4.11c-4.03-2.74-5.99-7.05-5.87-12.92l.07-.21h11.6c0,2.99.73,5.11,2.2,6.37s3.72,1.89,6.75,1.89c2.49,0,4.35-.49,5.57-1.48s1.83-2.28,1.83-3.88Z"/>
      <path class="cls-1" d="M509.24,34.77l.07.21c.09,5.85-1.56,10.29-4.96,13.31-3.4,3.02-8.21,4.53-14.44,4.53s-11.44-1.94-15.29-5.82c-3.84-3.88-5.77-8.96-5.77-15.24v-10.72c0-6.25,1.85-11.33,5.55-15.22,3.7-3.89,8.6-5.84,14.69-5.84,6.51,0,11.55,1.52,15.11,4.55,3.56,3.03,5.29,7.44,5.2,13.22l-.11.21h-11.6c0-3.15-.67-5.41-2.01-6.77-1.34-1.36-3.54-2.05-6.59-2.05-2.68,0-4.74,1.08-6.17,3.23-1.43,2.15-2.15,5.01-2.15,8.59v10.79c0,3.6.79,6.48,2.36,8.64s3.83,3.24,6.77,3.24c2.73,0,4.7-.68,5.91-2.04,1.21-1.36,1.82-3.64,1.82-6.84h11.6Z"/>
      <path class="cls-1" d="M545.92,30.12h-18.09v12.8h21.69v9.17h-33.61V.74h33.64v9.17h-21.72v11.04h18.09v9.17Z"/>
      <path class="cls-1" d="M599.03,52.09h-11.88l-18.8-32.3-.21.07v32.23h-11.92V.74h11.92l18.8,32.27.21-.07V.74h11.88v51.35Z"/>
      <path class="cls-1" d="M637.22,30.12h-18.09v12.8h21.69v9.17h-33.61V.74h33.64v9.17h-21.72v11.04h18.09v9.17Z"/>
      <path class="cls-1" d="M674,38.48c0-1.83-.6-3.24-1.8-4.21-1.2-.97-3.37-2.02-6.52-3.12-6.37-2.07-11.1-4.27-14.19-6.61-3.09-2.34-4.64-5.71-4.64-10.1s1.8-7.78,5.4-10.44c3.6-2.66,8.17-3.99,13.72-3.99,5.85,0,10.57,1.37,14.14,4.11,3.57,2.74,5.3,6.6,5.18,11.58l-.07.21h-11.57c0-2.42-.66-4.18-1.97-5.27-1.32-1.09-3.3-1.64-5.96-1.64-2.16,0-3.87.53-5.11,1.59-1.25,1.06-1.87,2.36-1.87,3.91s.64,2.71,1.92,3.62c1.28.91,3.67,2.04,7.18,3.4,5.95,1.76,10.45,3.91,13.51,6.45,3.06,2.54,4.58,6.02,4.58,10.44s-1.76,8.05-5.29,10.6c-3.53,2.55-8.21,3.83-14.04,3.83s-10.73-1.37-14.76-4.11c-4.03-2.74-5.99-7.05-5.87-12.92l.07-.21h11.6c0,2.99.73,5.11,2.2,6.37s3.72,1.89,6.75,1.89c2.49,0,4.35-.49,5.57-1.48s1.83-2.28,1.83-3.88Z"/>
    </g>
  </g>
</svg>